<svg width="14" height="19" viewBox="0 0 14 19" fill="none" xmlns="http://www.w3.org/2000/svg">
<path d="M12 0H1.5C1.10218 0 0.720644 0.158035 0.43934 0.43934C0.158035 0.720644 0 1.10218 0 1.5V18C0.000717126 18.1335 0.0366281 18.2645 0.104112 18.3797C0.171596 18.4949 0.268266 18.5903 0.384375 18.6562C0.495606 18.7198 0.621913 18.7522 0.75 18.75C0.889215 18.7503 1.02568 18.7113 1.14375 18.6375L6.75 15.1312L12.3469 18.6375C12.4624 18.7069 12.594 18.7452 12.7288 18.7485C12.8635 18.7518 12.9968 18.72 13.1156 18.6562C13.2317 18.5903 13.3284 18.4949 13.3959 18.3797C13.4634 18.2645 13.4993 18.1335 13.5 18V1.5C13.5 1.10218 13.342 0.720644 13.0607 0.43934C12.7794 0.158035 12.3978 0 12 0Z" fill="#F6BA2B"/>
</svg>
