<svg width="9" height="13" viewBox="0 0 9 13" fill="none" xmlns="http://www.w3.org/2000/svg">
<path fill-rule="evenodd" clip-rule="evenodd" d="M9 1V12C9 12.2761 8.77614 12.5 8.5 12.5C8.40629 12.5 8.31447 12.4737 8.235 12.424L4.5 10.0896L0.765 12.424C0.530831 12.5704 0.222356 12.4992 0.0760008 12.265C0.0263347 12.1855 0 12.0937 0 12V1C0 1 0 0.585787 0.292893 0.292893C0.292893 0.292893 0.585787 0 1 0H8C8 0 8.41422 0 8.70711 0.292893C8.70711 0.292893 9 0.585786 9 1ZM8 1H1V11.0979L4.235 9.076C4.39714 8.97467 4.60286 8.97467 4.765 9.076L8 11.0979V1Z" fill="#1B1B1F"/>
</svg>
